<?xml version="1.0" encoding="UTF-8" standalone="no"?>
<!-- Created with Inkscape (http://www.inkscape.org/) -->

<svg
   xmlns:dc="http://purl.org/dc/elements/1.1/"
   xmlns:cc="http://creativecommons.org/ns#"
   xmlns:rdf="http://www.w3.org/1999/02/22-rdf-syntax-ns#"
   xmlns:svg="http://www.w3.org/2000/svg"
   xmlns="http://www.w3.org/2000/svg"
   xmlns:sodipodi="http://sodipodi.sourceforge.net/DTD/sodipodi-0.dtd"
   xmlns:inkscape="http://www.inkscape.org/namespaces/inkscape"
   width="162.60201"
   height="70"
   viewBox="0 0 43.02178 18.520834"
   version="1.1"
   id="svg1050"
   inkscape:version="0.92.3 (2405546, 2018-03-11)"
   sodipodi:docname="ferizy.svg">
  <defs
     id="defs1044" />
  <sodipodi:namedview
     id="base"
     pagecolor="#ffffff"
     bordercolor="#666666"
     borderopacity="1.0"
     inkscape:pageopacity="0.0"
     inkscape:pageshadow="2"
     inkscape:zoom="2.8"
     inkscape:cx="86.467605"
     inkscape:cy="-42.294861"
     inkscape:document-units="mm"
     inkscape:current-layer="layer1"
     showgrid="false"
     units="px"
     inkscape:window-width="1920"
     inkscape:window-height="1050"
     inkscape:window-x="0"
     inkscape:window-y="0"
     inkscape:window-maximized="1" />
  <metadata
     id="metadata1047">
    <rdf:RDF>
      <cc:Work
         rdf:about="">
        <dc:format>image/svg+xml</dc:format>
        <dc:type
           rdf:resource="http://purl.org/dc/dcmitype/StillImage" />
        <dc:title></dc:title>
      </cc:Work>
    </rdf:RDF>
  </metadata>
  <g
     inkscape:label="Layer 1"
     inkscape:groupmode="layer"
     id="layer1"
     transform="translate(0,-278.47915)">
    <g
       id="g1677"
       transform="translate(-81.217011,-17.936822)">
      <g
         inkscape:export-ydpi="160"
         inkscape:export-xdpi="160"
         id="g974"
         transform="matrix(0.96252213,0,0,0.96252213,24.535676,59.868439)">
        <g
           transform="matrix(0.99999004,0,0,1.0000002,-24.520413,85.289318)"
           style="stroke:#ffffff;stroke-width:0.5;stroke-linecap:round;stroke-linejoin:round;stroke-miterlimit:4;stroke-dasharray:none;paint-order:markers stroke fill"
           id="g929">
          <g
             id="g927"
             style="font-style:normal;font-weight:normal;font-size:3.54427433px;line-height:1.25;font-family:sans-serif;letter-spacing:0px;word-spacing:0px;fill:#58595b;fill-opacity:0.87843137;stroke:#ffffff;stroke-width:0.5;stroke-linecap:round;stroke-linejoin:round;stroke-miterlimit:4;stroke-dasharray:none;paint-order:markers stroke fill"
             aria-label="Naik Ferry, Easy!"
             transform="translate(-53.453906,74.568198)">
            <path
               id="path897"
               style="font-style:normal;font-variant:normal;font-weight:normal;font-stretch:normal;font-family:Helvetica;-inkscape-font-specification:Helvetica;fill:#58595b;fill-opacity:0.87843137;stroke:#ffffff;stroke-width:0.5;stroke-linecap:round;stroke-linejoin:round;stroke-miterlimit:4;stroke-dasharray:none;paint-order:markers stroke fill"
               d="m 138.54759,101.59046 h 0.40669 l 1.28411,2.05942 v -2.05942 h 0.32709 v 2.54225 h -0.38593 l -1.30314,-2.05768 v 2.05768 h -0.32882 z m 0.98645,0 z"
               inkscape:connector-curvature="0" />
            <path
               id="path899"
               style="font-style:normal;font-variant:normal;font-weight:normal;font-stretch:normal;font-family:Helvetica;-inkscape-font-specification:Helvetica;fill:#58595b;fill-opacity:0.87843137;stroke:#ffffff;stroke-width:0.5;stroke-linecap:round;stroke-linejoin:round;stroke-miterlimit:4;stroke-dasharray:none;paint-order:markers stroke fill"
               d="m 141.30617,103.63949 q 0,0.13499 0.0986,0.21287 0.0986,0.0779 0.23363,0.0779 0.16441,0 0.31843,-0.0761 0.25959,-0.12634 0.25959,-0.41362 v -0.25094 q -0.0571,0.0363 -0.1471,0.0606 -0.09,0.0242 -0.17652,0.0346 l -0.18864,0.0242 q -0.1696,0.0225 -0.2544,0.071 -0.14364,0.0813 -0.14364,0.25959 z m 0.75455,-0.62994 q 0.10729,-0.0138 0.14364,-0.09 0.0208,-0.0415 0.0208,-0.11941 0,-0.15922 -0.11422,-0.23017 -0.11249,-0.0727 -0.32362,-0.0727 -0.24401,0 -0.34612,0.13153 -0.0571,0.0727 -0.0744,0.21632 h -0.2908 q 0.009,-0.34265 0.22152,-0.47591 0.21459,-0.13499 0.49668,-0.13499 0.32709,0 0.5313,0.12461 0.20248,0.1246 0.20248,0.38765 v 1.06778 q 0,0.0485 0.019,0.0779 0.0208,0.0294 0.0848,0.0294 0.0208,0 0.0467,-0.002 0.026,-0.003 0.0554,-0.009 v 0.23017 q -0.0727,0.0208 -0.11076,0.026 -0.0381,0.005 -0.10383,0.005 -0.16095,0 -0.23364,-0.11422 -0.0381,-0.0606 -0.0536,-0.17133 -0.0952,0.1246 -0.27344,0.21632 -0.17825,0.0917 -0.39285,0.0917 -0.25786,0 -0.42226,-0.15576 -0.16268,-0.15748 -0.16268,-0.39285 0,-0.25786 0.16095,-0.39977 0.16094,-0.1419 0.42226,-0.17479 z m -0.25786,-0.77531 z"
               inkscape:connector-curvature="0" />
            <path
               id="path901"
               style="font-style:normal;font-variant:normal;font-weight:normal;font-stretch:normal;font-family:Helvetica;-inkscape-font-specification:Helvetica;fill:#58595b;fill-opacity:0.87843137;stroke:#ffffff;stroke-width:0.5;stroke-linecap:round;stroke-linejoin:round;stroke-miterlimit:4;stroke-dasharray:none;paint-order:markers stroke fill"
               d="m 143.04024,102.28789 h 0.3167 v 1.84482 h -0.3167 z m 0,-0.69743 h 0.3167 v 0.35304 h -0.3167 z"
               inkscape:connector-curvature="0" />
            <path
               id="path903"
               style="font-style:normal;font-variant:normal;font-weight:normal;font-stretch:normal;font-family:Helvetica;-inkscape-font-specification:Helvetica;fill:#58595b;fill-opacity:0.87843137;stroke:#ffffff;stroke-width:0.5;stroke-linecap:round;stroke-linejoin:round;stroke-miterlimit:4;stroke-dasharray:none;paint-order:markers stroke fill"
               d="m 143.82247,101.59046 h 0.29939 v 1.4762 l 0.79954,-0.78742 h 0.39804 l -0.70955,0.69397 0.74935,1.1595 h -0.39803 l -0.57803,-0.93452 -0.26132,0.23882 v 0.6957 h -0.29939 z"
               inkscape:connector-curvature="0" />
            <path
               id="path905"
               style="font-style:normal;font-variant:normal;font-weight:normal;font-stretch:normal;font-family:Helvetica;-inkscape-font-specification:Helvetica;fill:#58595b;fill-opacity:0.87843137;stroke:#ffffff;stroke-width:0.5;stroke-linecap:round;stroke-linejoin:round;stroke-miterlimit:4;stroke-dasharray:none;paint-order:markers stroke fill"
               d="m 146.65893,101.59046 h 1.76348 v 0.31151 h -1.41909 v 0.77185 h 1.24776 v 0.30285 h -1.24776 v 1.15604 h -0.34439 z"
               inkscape:connector-curvature="0" />
            <path
               id="path907"
               style="font-style:normal;font-variant:normal;font-weight:normal;font-stretch:normal;font-family:Helvetica;-inkscape-font-specification:Helvetica;fill:#58595b;fill-opacity:0.87843137;stroke:#ffffff;stroke-width:0.5;stroke-linecap:round;stroke-linejoin:round;stroke-miterlimit:4;stroke-dasharray:none;paint-order:markers stroke fill"
               d="m 149.52307,102.2377 q 0.19729,0 0.38247,0.0935 0.18517,0.0917 0.28209,0.23882 0.0934,0.14018 0.1246,0.32708 0.0277,0.12807 0.0277,0.40843 h -1.35852 q 0.009,0.28208 0.13325,0.45341 0.12461,0.1696 0.38593,0.1696 0.24401,0 0.38938,-0.16094 0.0831,-0.0935 0.11768,-0.21633 h 0.30632 q -0.0121,0.10211 -0.0813,0.22844 -0.0675,0.1246 -0.15229,0.20421 -0.14191,0.13845 -0.35131,0.18691 -0.11249,0.0277 -0.2544,0.0277 -0.34612,0 -0.58668,-0.25094 -0.24055,-0.25267 -0.24055,-0.70609 0,-0.44649 0.24228,-0.72512 0.24229,-0.27863 0.6334,-0.27863 z m 0.49669,0.82031 q -0.019,-0.20248 -0.0883,-0.32362 -0.12807,-0.22498 -0.42746,-0.22498 -0.2146,0 -0.35997,0.15575 -0.14537,0.15403 -0.15402,0.39285 z m -0.52611,-0.82377 z"
               inkscape:connector-curvature="0" />
            <path
               id="path909"
               style="font-style:normal;font-variant:normal;font-weight:normal;font-stretch:normal;font-family:Helvetica;-inkscape-font-specification:Helvetica;fill:#58595b;fill-opacity:0.87843137;stroke:#ffffff;stroke-width:0.5;stroke-linecap:round;stroke-linejoin:round;stroke-miterlimit:4;stroke-dasharray:none;paint-order:markers stroke fill"
               d="m 150.73277,102.27924 h 0.29593 v 0.32016 q 0.0363,-0.0935 0.17825,-0.22671 0.14191,-0.13499 0.32708,-0.13499 0.009,0 0.0294,0.002 0.0208,0.002 0.071,0.007 v 0.32881 q -0.0277,-0.005 -0.0519,-0.007 -0.0225,-0.002 -0.0502,-0.002 -0.23536,0 -0.36169,0.15229 -0.12634,0.15056 -0.12634,0.34785 v 1.06605 h -0.3115 z"
               inkscape:connector-curvature="0" />
            <path
               id="path911"
               style="font-style:normal;font-variant:normal;font-weight:normal;font-stretch:normal;font-family:Helvetica;-inkscape-font-specification:Helvetica;fill:#58595b;fill-opacity:0.87843137;stroke:#ffffff;stroke-width:0.5;stroke-linecap:round;stroke-linejoin:round;stroke-miterlimit:4;stroke-dasharray:none;paint-order:markers stroke fill"
               d="m 151.9165,102.27924 h 0.29593 v 0.32016 q 0.0363,-0.0935 0.17825,-0.22671 0.14191,-0.13499 0.32709,-0.13499 0.009,0 0.0294,0.002 0.0208,0.002 0.071,0.007 v 0.32881 q -0.0277,-0.005 -0.0519,-0.007 -0.0225,-0.002 -0.0502,-0.002 -0.23537,0 -0.3617,0.15229 -0.12633,0.15056 -0.12633,0.34785 v 1.06605 h -0.31151 z"
               inkscape:connector-curvature="0" />
            <path
               id="path913"
               style="font-style:normal;font-variant:normal;font-weight:normal;font-stretch:normal;font-family:Helvetica;-inkscape-font-specification:Helvetica;fill:#58595b;fill-opacity:0.87843137;stroke:#ffffff;stroke-width:0.5;stroke-linecap:round;stroke-linejoin:round;stroke-miterlimit:4;stroke-dasharray:none;paint-order:markers stroke fill"
               d="m 154.24935,102.27924 h 0.34439 q -0.0658,0.17825 -0.29247,0.81338 -0.1696,0.47765 -0.28382,0.77877 -0.26997,0.70955 -0.38073,0.8653 -0.11076,0.15576 -0.38073,0.15576 -0.0658,0 -0.10211,-0.005 -0.0346,-0.005 -0.0865,-0.019 v -0.28382 q 0.0813,0.0225 0.11768,0.0277 0.0363,0.005 0.064,0.005 0.0865,0 0.12634,-0.0294 0.0415,-0.0277 0.0692,-0.0692 0.009,-0.0139 0.0623,-0.14191 0.0537,-0.12807 0.0779,-0.19037 l -0.68532,-1.90712 h 0.35304 l 0.49669,1.50908 z m -0.50187,-0.045 z"
               inkscape:connector-curvature="0" />
            <path
               id="path915"
               style="font-style:normal;font-variant:normal;font-weight:normal;font-stretch:normal;font-family:Helvetica;-inkscape-font-specification:Helvetica;fill:#58595b;fill-opacity:0.87843137;stroke:#ffffff;stroke-width:0.5;stroke-linecap:round;stroke-linejoin:round;stroke-miterlimit:4;stroke-dasharray:none;paint-order:markers stroke fill"
               d="m 154.66643,104.49441 q 0.11941,-0.0208 0.16786,-0.16787 0.026,-0.0779 0.026,-0.15056 0,-0.0121 -0.002,-0.0225 0,-0.009 -0.003,-0.0208 h -0.18863 v -0.37727 h 0.37034 v 0.34958 q 0,0.20595 -0.0831,0.3617 -0.0831,0.15575 -0.28728,0.1921 z"
               inkscape:connector-curvature="0" />
            <path
               id="path917"
               style="font-style:oblique;font-variant:normal;font-weight:normal;font-stretch:normal;font-family:Helvetica;-inkscape-font-specification:'Helvetica Oblique';fill:#58595b;fill-opacity:0.87843137;stroke:#ffffff;stroke-width:0.5;stroke-linecap:round;stroke-linejoin:round;stroke-miterlimit:4;stroke-dasharray:none;paint-order:markers stroke fill"
               d="m 157.18099,101.59046 h 1.85348 l -0.0675,0.31151 h -1.51773 l -0.16268,0.77185 h 1.40352 l -0.0623,0.2942 h -1.40352 l -0.18345,0.86184 h 1.5437 l -0.064,0.30285 h -1.87944 z"
               inkscape:connector-curvature="0" />
            <path
               id="path919"
               style="font-style:oblique;font-variant:normal;font-weight:normal;font-stretch:normal;font-family:Helvetica;-inkscape-font-specification:'Helvetica Oblique';fill:#58595b;fill-opacity:0.87843137;stroke:#ffffff;stroke-width:0.5;stroke-linecap:round;stroke-linejoin:round;stroke-miterlimit:4;stroke-dasharray:none;paint-order:markers stroke fill"
               d="m 159.54673,103.93023 q 0.1644,0 0.33573,-0.0761 0.28555,-0.12634 0.34785,-0.41362 l 0.0519,-0.25094 q -0.064,0.0363 -0.15921,0.0606 -0.0952,0.0242 -0.18345,0.0346 l -0.19383,0.0242 q -0.17479,0.0225 -0.26997,0.071 -0.16095,0.0813 -0.19902,0.25959 -0.0294,0.13499 0.0519,0.21287 0.0831,0.0779 0.21806,0.0779 z m 0.61782,-0.92068 q 0.11076,-0.0138 0.16441,-0.09 0.0294,-0.0415 0.045,-0.11941 0.0346,-0.15922 -0.064,-0.23017 -0.0986,-0.0727 -0.30978,-0.0727 -0.24401,0 -0.37381,0.13153 -0.0727,0.0727 -0.11941,0.21632 h -0.29074 q 0.0813,-0.34265 0.32362,-0.47591 0.24229,-0.13499 0.52438,-0.13499 0.32708,0 0.5036,0.12461 0.17652,0.1246 0.12114,0.38765 l -0.22671,1.06778 q -0.0104,0.0485 0.002,0.0779 0.0138,0.0294 0.0779,0.0294 0.0208,0 0.0467,-0.002 0.0277,-0.003 0.0588,-0.009 l -0.0502,0.23017 q -0.0761,0.0208 -0.11595,0.026 -0.0381,0.005 -0.10384,0.005 -0.16094,0 -0.2094,-0.11422 -0.026,-0.0606 -0.0173,-0.17133 -0.12288,0.1246 -0.32017,0.21632 -0.19728,0.0917 -0.41188,0.0917 -0.25786,0 -0.38939,-0.15576 -0.12979,-0.15748 -0.0796,-0.39285 0.0554,-0.25786 0.24574,-0.39977 0.1921,-0.1419 0.46034,-0.17479 z"
               inkscape:connector-curvature="0" />
            <path
               id="path921"
               style="font-style:oblique;font-variant:normal;font-weight:normal;font-stretch:normal;font-family:Helvetica;-inkscape-font-specification:'Helvetica Oblique';fill:#58595b;fill-opacity:0.87843137;stroke:#ffffff;stroke-width:0.5;stroke-linecap:round;stroke-linejoin:round;stroke-miterlimit:4;stroke-dasharray:none;paint-order:markers stroke fill"
               d="m 161.21503,103.55123 q -0.019,0.15576 0.0277,0.23882 0.0848,0.15057 0.37554,0.15057 0.17306,0 0.32016,-0.0744 0.14883,-0.0762 0.18171,-0.23363 0.026,-0.11941 -0.0675,-0.18171 -0.0588,-0.0381 -0.24748,-0.0883 l -0.23363,-0.0623 q -0.22498,-0.0588 -0.32189,-0.13152 -0.17479,-0.12634 -0.12634,-0.34958 0.0554,-0.26306 0.27863,-0.42573 0.22498,-0.16268 0.54514,-0.16268 0.41881,0 0.55206,0.24575 0.0831,0.15575 0.0415,0.33573 h -0.2942 q 0.0138,-0.10556 -0.0346,-0.19209 -0.0813,-0.12288 -0.34612,-0.12288 -0.17652,0 -0.28209,0.0675 -0.10383,0.0675 -0.12806,0.17825 -0.026,0.12114 0.0779,0.19383 0.0606,0.0433 0.18863,0.0761 l 0.19556,0.0502 q 0.31843,0.0813 0.41708,0.15749 0.15575,0.11941 0.10037,0.37554 -0.0519,0.24747 -0.27863,0.42746 -0.22497,0.17998 -0.60917,0.17998 -0.41361,0 -0.54687,-0.18691 -0.13152,-0.18863 -0.0848,-0.46553 z"
               inkscape:connector-curvature="0" />
            <path
               id="path923"
               style="font-style:oblique;font-variant:normal;font-weight:normal;font-stretch:normal;font-family:Helvetica;-inkscape-font-specification:'Helvetica Oblique';fill:#58595b;fill-opacity:0.87843137;stroke:#ffffff;stroke-width:0.5;stroke-linecap:round;stroke-linejoin:round;stroke-miterlimit:4;stroke-dasharray:none;paint-order:markers stroke fill"
               d="m 164.22974,102.27924 h 0.34439 q -0.10384,0.17825 -0.46554,0.81338 -0.26997,0.47765 -0.44822,0.77877 -0.42227,0.70955 -0.56591,0.8653 -0.14364,0.15576 -0.41361,0.15576 -0.0658,0 -0.10038,-0.005 -0.0346,-0.005 -0.0831,-0.019 l 0.0606,-0.28382 q 0.0761,0.0225 0.11076,0.0277 0.0363,0.005 0.064,0.005 0.0865,0 0.13326,-0.0294 0.0467,-0.0277 0.0831,-0.0692 0.0121,-0.0139 0.0917,-0.14191 0.0813,-0.12807 0.11941,-0.19037 l -0.28035,-1.90712 h 0.35304 l 0.17652,1.50908 z"
               inkscape:connector-curvature="0" />
            <path
               id="path925"
               style="font-style:oblique;font-variant:normal;font-weight:normal;font-stretch:normal;font-family:Helvetica;-inkscape-font-specification:'Helvetica Oblique';fill:#58595b;fill-opacity:0.87843137;stroke:#ffffff;stroke-width:0.5;stroke-linecap:round;stroke-linejoin:round;stroke-miterlimit:4;stroke-dasharray:none;paint-order:markers stroke fill"
               d="m 165.17292,101.59046 h 0.35131 l -0.17825,0.83588 -0.31844,1.10066 h -0.17652 l 0.14364,-1.10066 z m -0.46381,2.18229 h 0.34439 l -0.0761,0.35996 h -0.34439 z"
               inkscape:connector-curvature="0" />
          </g>
        </g>
        <g
           transform="matrix(0.99999004,0,0,1.0000002,-24.520413,85.289318)"
           style="stroke:#ffffff;stroke-width:1;stroke-linecap:round;stroke-linejoin:round;stroke-miterlimit:3.9000001;stroke-dasharray:none;paint-order:markers stroke fill"
           id="g947">
          <path
             inkscape:connector-curvature="0"
             d="m 87.477374,168.10431 v 5.35173 h -2.67586 v -5.35173 h -0.89196 v -2.67587 h 0.89196 q 0,-1.84634 1.30225,-3.1486 1.31118,-1.31117 3.15752,-1.31117 v 2.67586 q -0.74032,0 -1.26657,0.52626 -0.51734,0.51733 -0.51734,1.25765 h 1.78391 v 2.67587 z"
             style="font-style:normal;font-variant:normal;font-weight:normal;font-stretch:normal;font-size:medium;line-height:1.25;font-family:PrimarySchool;-inkscape-font-specification:PrimarySchool;letter-spacing:0px;word-spacing:0px;fill:#1767b3;fill-opacity:1;stroke:#ffffff;stroke-width:1;stroke-linecap:round;stroke-linejoin:round;stroke-miterlimit:3.9000001;stroke-dasharray:none;paint-order:markers stroke fill"
             id="path932" />
          <path
             inkscape:connector-curvature="0"
             d="m 96.165014,168.10431 q -0.11595,-0.19623 -0.28542,-0.37462 -0.52625,-0.51734 -1.26658,-0.51734 -0.74032,0 -1.25765,0.51734 -0.17839,0.17839 -0.29435,0.37462 z m -3.104,1.78391 q 0.11596,0.19623 0.29435,0.3657 0.51733,0.52625 1.25765,0.52625 0.59761,0 1.06143,-0.34786 l 2.97021,0.4995 q -0.3211,0.66004 -0.87412,1.21306 -1.31117,1.31117 -3.15752,1.31117 -1.84634,0 -3.15752,-1.30226 -1.30225,-1.31117 -1.30225,-3.15752 0,-1.84634 1.30225,-3.1486 1.31118,-1.31117 3.15752,-1.31117 1.84635,0 3.1486,1.31117 1.31118,1.30226 1.31118,3.1486 0,0.46382 -0.0803,0.89196 z"
             style="font-style:normal;font-variant:normal;font-weight:normal;font-stretch:normal;font-size:medium;line-height:1.25;font-family:PrimarySchool;-inkscape-font-specification:PrimarySchool;letter-spacing:0px;word-spacing:0px;fill:#1767b3;fill-opacity:1;stroke:#ffffff;stroke-width:1;stroke-linecap:round;stroke-linejoin:round;stroke-miterlimit:3.9000001;stroke-dasharray:none;paint-order:markers stroke fill"
             id="path934" />
          <path
             inkscape:connector-curvature="0"
             d="m 102.64061,168.99626 v 4.45978 h -2.675866 v -8.91955 h 2.675866 v 0.35678 q 0.8206,-0.35678 1.78391,-0.35678 h 0.89195 l 0.009,2.67586 h -0.90087 q -0.74032,0 -1.26658,0.52626 -0.51733,0.51733 -0.51733,1.25765 z"
             style="font-style:normal;font-variant:normal;font-weight:normal;font-stretch:normal;font-size:medium;line-height:1.25;font-family:PrimarySchool;-inkscape-font-specification:PrimarySchool;letter-spacing:0px;word-spacing:0px;fill:#1767b3;fill-opacity:1;stroke:#ffffff;stroke-width:1;stroke-linecap:round;stroke-linejoin:round;stroke-miterlimit:3.9000001;stroke-dasharray:none;paint-order:markers stroke fill"
             id="path937" />
          <path
             inkscape:connector-curvature="0"
             d="m 108.88429,164.53649 v 8.91955 h -2.67586 v -8.91955 z m -1.33793,-3.56782 q 0.55301,0 0.94547,0.39246 0.39246,0.39246 0.39246,0.94547 0,0.55301 -0.39246,0.94547 -0.39246,0.39246 -0.94547,0.39246 -0.55301,0 -0.94547,-0.39246 -0.39246,-0.39246 -0.39246,-0.94547 0,-0.55301 0.39246,-0.94547 0.39246,-0.39246 0.94547,-0.39246 z"
             style="font-style:normal;font-variant:normal;font-weight:normal;font-stretch:normal;font-size:medium;line-height:1.25;font-family:PrimarySchool;-inkscape-font-specification:PrimarySchool;letter-spacing:0px;word-spacing:0px;fill:#1767b3;fill-opacity:1;stroke:#ffffff;stroke-width:1;stroke-linecap:round;stroke-linejoin:round;stroke-miterlimit:3.9000001;stroke-dasharray:none;paint-order:markers stroke fill"
             id="path939" />
          <g
             id="g945"
             style="font-style:normal;font-weight:normal;font-size:18.26723671px;line-height:1.25;font-family:sans-serif;letter-spacing:0px;word-spacing:0px;fill:#f58220;fill-opacity:1;stroke:#ffffff;stroke-width:1;stroke-linecap:round;stroke-linejoin:round;stroke-miterlimit:3.9000001;stroke-dasharray:none;paint-order:markers stroke fill"
             aria-label="zy"
             transform="translate(-53.453906,74.568198)">
            <path
               id="path941"
               style="font-style:normal;font-variant:normal;font-weight:normal;font-stretch:normal;font-family:PrimarySchool;-inkscape-font-specification:PrimarySchool;fill:#f58220;fill-opacity:1;stroke:#ffffff;stroke-width:1;stroke-linecap:round;stroke-linejoin:round;stroke-miterlimit:3.9000001;stroke-dasharray:none;paint-order:markers stroke fill"
               d="m 167.2356,96.211976 h 4.00488 v 2.675864 h -8.01868 v -2.675864 l 4.0138,-3.56782 h -4.0138 v -2.675865 h 8.01868 v 2.675865 z"
               inkscape:connector-curvature="0" />
            <path
               id="path943"
               style="font-style:normal;font-variant:normal;font-weight:normal;font-stretch:normal;font-family:PrimarySchool;-inkscape-font-specification:PrimarySchool;fill:#f58220;fill-opacity:1;stroke:#ffffff;stroke-width:1;stroke-linecap:round;stroke-linejoin:round;stroke-miterlimit:3.9000001;stroke-dasharray:none;paint-order:markers stroke fill"
               d="m 178.38504,94.428066 v -4.459775 h 2.67586 v 8.027594 q 0,1.846347 -1.31117,3.148605 -1.30226,1.31117 -3.1486,1.31117 -1.84635,0 -3.14861,-1.31117 -0.41029,-0.40138 -0.6868,-0.8652 l 2.46179,-1.141702 q 0.0535,0.06244 0.11596,0.115954 0.51733,0.526253 1.25766,0.526253 0.74032,0 1.26657,-0.526253 0.30327,-0.303265 0.42814,-0.686805 -0.78492,0.321103 -1.69471,0.321103 -1.84635,0 -3.15753,-1.302254 -1.30225,-1.311174 -1.30225,-3.15752 v -4.459775 h 2.67587 v 4.459775 q 0,0.740322 0.51733,1.266576 0.52625,0.517334 1.26658,0.517334 0.74032,0 1.25765,-0.517334 0.52626,-0.526254 0.52626,-1.266576 z"
               inkscape:connector-curvature="0" />
          </g>
        </g>
      </g>
    </g>
  </g>
</svg>
