<?xml version="1.0" encoding="UTF-8" standalone="no"?>
<!-- Created with Inkscape (http://www.inkscape.org/) -->

<svg
   xmlns:dc="http://purl.org/dc/elements/1.1/"
   xmlns:cc="http://creativecommons.org/ns#"
   xmlns:rdf="http://www.w3.org/1999/02/22-rdf-syntax-ns#"
   xmlns:svg="http://www.w3.org/2000/svg"
   xmlns="http://www.w3.org/2000/svg"
   xmlns:xlink="http://www.w3.org/1999/xlink"
   xmlns:sodipodi="http://sodipodi.sourceforge.net/DTD/sodipodi-0.dtd"
   xmlns:inkscape="http://www.inkscape.org/namespaces/inkscape"
   version="1.1"
   id="svg2"
   xml:space="preserve"
   width="160"
   height="160"
   viewBox="0 0 160 160"
   sodipodi:docname="stamp.svg"
   inkscape:version="0.92.3 (2405546, 2018-03-11)"><metadata
     id="metadata8"><rdf:RDF><cc:Work
         rdf:about=""><dc:format>image/svg+xml</dc:format><dc:type
           rdf:resource="http://purl.org/dc/dcmitype/StillImage" /><dc:title></dc:title></cc:Work></rdf:RDF></metadata><defs
     id="defs6" /><sodipodi:namedview
     pagecolor="#ffffff"
     bordercolor="#666666"
     borderopacity="1"
     objecttolerance="10"
     gridtolerance="10"
     guidetolerance="10"
     inkscape:pageopacity="0"
     inkscape:pageshadow="2"
     inkscape:window-width="1920"
     inkscape:window-height="1005"
     id="namedview4"
     showgrid="false"
     inkscape:zoom="3.5695658"
     inkscape:cx="101.65305"
     inkscape:cy="72.215451"
     inkscape:window-x="0"
     inkscape:window-y="28"
     inkscape:window-maximized="1"
     inkscape:current-layer="g10"
     inkscape:snap-page="false" /><g
     id="g10"
     inkscape:groupmode="layer"
     inkscape:label="ink_ext_XXXXXX"
     transform="matrix(1.3333333,0,0,-1.3333333,0,160)">
<circle
   style="fill:none;fill-opacity:1;stroke:none;stroke-width:3.5951395;stroke-linecap:round;stroke-linejoin:bevel;stroke-miterlimit:4;stroke-dasharray:none;stroke-opacity:1;paint-order:markers stroke fill"
   id="path873"
   cx="219.62892"
   cy="313.75082"
   r="329.74344"
   transform="rotate(44.27962)" /><text
   xml:space="preserve"
   style="font-style:normal;font-variant:normal;font-weight:normal;font-stretch:normal;font-size:46.42689133px;line-height:1.25;font-family:samantha;-inkscape-font-specification:samantha;letter-spacing:0px;word-spacing:0px;writing-mode:tb-rl;direction:rtl;fill:#000000;fill-opacity:1;stroke:none;stroke-width:1.16067219"
   id="text868"><textPath
     xlink:href="#path873"
     id="textPath877"
     style="font-style:normal;font-variant:normal;font-weight:normal;font-stretch:normal;font-family:'Bebas Neue';-inkscape-font-specification:'Bebas Neue';letter-spacing:11.25px;writing-mode:tb-rl;direction:rtl;baseline-shift:baseline;stroke-width:1.16067219"
     rotate="0 0 0 0 0 0 0 0 0 0 0 0 0 0 0 0 0 0 0 0 0">ASDP INDONESIA FERRY</textPath></text>
<g
   id="g1004"
   transform="matrix(0.13414401,0.02172043,-0.02172043,0.13414401,-3.0696271,-27.439953)"><path
     d="m 563.235,848.754 8.206,-25.256 H 598 l -21.487,-15.609 8.207,-25.258 -21.485,15.606 -21.485,-15.606 8.204,25.258 -21.483,15.609 h 26.561 l 8.203,25.256"
     style="fill:#0a67b2;fill-opacity:1;fill-rule:nonzero;stroke:none;stroke-width:0.1"
     id="path90"
     inkscape:connector-curvature="0" /><path
     d="m 563.235,349.543 8.206,-25.255 H 598 l -21.487,-15.611 8.207,-25.259 -21.485,15.611 -21.485,-15.611 8.204,25.259 -21.483,15.611 h 26.561 l 8.203,25.255"
     style="fill:#0a67b2;fill-opacity:1;fill-rule:nonzero;stroke:none;stroke-width:0.1"
     id="path92"
     inkscape:connector-curvature="0" /><path
     d="m 561.001,985.785 c -234.227,0 -424.787,-190.558 -424.787,-424.786 0,-234.225 190.56,-424.786 424.787,-424.786 234.224,0 424.783,190.561 424.783,424.786 0,234.228 -190.559,424.786 -424.783,424.786 z m 0,-866.315 c -243.462,0 -441.531,198.07 -441.531,441.529 0,243.461 198.069,441.531 441.531,441.531 243.459,0 441.529,-198.07 441.529,-441.531 0,-243.459 -198.07,-441.529 -441.529,-441.529"
     style="fill:#0a67b2;fill-opacity:1;fill-rule:nonzero;stroke:none;stroke-width:0.1"
     id="path94"
     inkscape:connector-curvature="0" /><path
     d="M 875.108,728.458 H 255.667 v 6.698 h 619.441 v -6.698"
     style="fill:#0a67b2;fill-opacity:1;fill-rule:nonzero;stroke:none;stroke-width:0.1"
     id="path98"
     inkscape:connector-curvature="0" /><path
     d="M 875.108,386.844 H 255.667 v 6.699 h 619.441 v -6.699"
     style="fill:#0a67b2;fill-opacity:1;fill-rule:nonzero;stroke:none;stroke-width:0.1"
     id="path100"
     inkscape:connector-curvature="0" /><text
     transform="scale(1,-1)"
     id="text953"
     y="-443.1749"
     x="230.86256"
     style="font-style:normal;font-variant:normal;font-weight:normal;font-stretch:normal;font-size:336.64746094px;line-height:1.25;font-family:samantha;-inkscape-font-specification:samantha;letter-spacing:0px;word-spacing:0px;fill:#0a67b2;fill-opacity:1;stroke:none;stroke-width:8.41618633"
     xml:space="preserve"><tspan
       style="font-style:normal;font-variant:normal;font-weight:normal;font-stretch:normal;font-family:'Bebas Neue';-inkscape-font-specification:'Bebas Neue';fill:#0a67b2;fill-opacity:1;stroke-width:8.41618633"
       y="-443.1749"
       x="230.86256"
       id="tspan951"
       sodipodi:role="line">LUNAS</tspan></text>
<path
     d="m 561.001,953.406 c -216.376,0 -392.411,-176.031 -392.411,-392.407 0,-216.376 176.035,-392.408 392.411,-392.408 216.374,0 392.408,176.032 392.408,392.408 0,216.376 -176.034,392.407 -392.408,392.407 z m 0,-794.86 c -221.918,0 -402.46,180.539 -402.46,402.453 0,221.918 180.542,402.458 402.46,402.458 221.914,0 402.454,-180.54 402.454,-402.458 0,-221.914 -180.54,-402.453 -402.454,-402.453"
     style="fill:#0a67b2;fill-opacity:1;fill-rule:nonzero;stroke:none;stroke-width:0.1"
     id="path96"
     inkscape:connector-curvature="0" /><g
     id="text882"
     style="font-style:normal;font-variant:normal;font-weight:normal;font-stretch:normal;font-size:45.26742172px;line-height:1.25;font-family:samantha;-inkscape-font-specification:samantha;letter-spacing:0px;word-spacing:0px;fill:#0a67b2;fill-opacity:1;stroke:none;stroke-width:1.13168561"
     transform="matrix(-0.9978653,-0.06530572,-0.06530572,0.9978653,2083.2036,203.10483)"
     aria-label="ASDP INDONESIA FERRY"><path
       inkscape:connector-curvature="0"
       id="path896"
       style="font-style:normal;font-variant:normal;font-weight:normal;font-stretch:normal;font-family:'Bebas Neue';-inkscape-font-specification:'Bebas Neue';letter-spacing:11.25px;writing-mode:lr-tb;direction:ltr;fill:#0a67b2;fill-opacity:1;stroke-width:1.13168561"
       d="m 1749.9775,198.14481 -3.3707,-3.15559 -4.8993,3.90855 -4.1308,-3.86714 -0.062,0.0661 3.6393,-5.21213 -3.635,-3.40308 -17.8888,26.65899 4.9239,4.60963 z m -11.6386,3.49015 -12.2905,9.94891 -0.066,-0.0619 9.085,-12.94982 z" /><path
       inkscape:connector-curvature="0"
       id="path898"
       style="font-style:normal;font-variant:normal;font-weight:normal;font-stretch:normal;font-family:'Bebas Neue';-inkscape-font-specification:'Bebas Neue';letter-spacing:11.25px;writing-mode:lr-tb;direction:ltr;fill:#0a67b2;fill-opacity:1;stroke-width:1.13168561"
       d="m 1722.5237,173.34522 c -3.8185,-3.05299 -7.6783,-2.42979 -10.9009,1.60078 -2.4593,3.07596 -3.017,5.87567 -2.0541,11.34019 0.7648,4.26274 0.532,6.22108 -0.9097,8.02423 -1.3569,1.69708 -2.6011,1.80347 -3.8385,0.81407 -1.2375,-0.98939 -1.4075,-2.22652 0.01,-3.99431 l 1.0177,-1.27281 -3.677,-2.93992 -0.8198,1.02532 c -3.1661,3.95985 -3.1014,7.72085 0.6817,10.74557 3.783,3.02473 7.6075,2.37326 10.717,-1.51588 2.2615,-2.82847 2.8121,-5.69181 1.8491,-11.15632 -0.7647,-4.26275 -0.4966,-6.19282 1.143,-8.24346 1.47,-1.8385 2.7566,-1.853 3.9941,-0.8636 1.2374,0.98939 1.5064,2.2477 0.093,4.01549 l -1.3569,1.69708 3.677,2.93992 1.1308,-1.41423 c 3.166,-3.95985 3.066,-7.74912 -0.7524,-10.80212 z" /><path
       inkscape:connector-curvature="0"
       id="path900"
       style="font-style:normal;font-variant:normal;font-weight:normal;font-stretch:normal;font-family:'Bebas Neue';-inkscape-font-specification:'Bebas Neue';letter-spacing:11.25px;writing-mode:lr-tb;direction:ltr;fill:#0a67b2;fill-opacity:1;stroke-width:1.13168561"
       d="m 1705.0475,160.66497 -6.2945,-4.26782 c -4.1214,-2.79441 -7.6943,-1.88071 -10.5395,2.31561 l -8.9929,13.26339 c -2.8452,4.19632 -2.3716,7.85362 1.7498,10.64803 l 6.2945,4.26783 z m -6.6618,0.95231 -12.7019,18.7336 -2.0981,-1.42261 c -1.3114,-0.88913 -1.6409,-2.09702 -0.3707,-3.97038 l 9.2469,-13.63806 c 1.2702,-1.87335 2.5143,-2.01429 3.8256,-1.12516 z" /><path
       inkscape:connector-curvature="0"
       id="path902"
       style="font-style:normal;font-variant:normal;font-weight:normal;font-stretch:normal;font-family:'Bebas Neue';-inkscape-font-specification:'Bebas Neue';letter-spacing:11.25px;writing-mode:lr-tb;direction:ltr;fill:#0a67b2;fill-opacity:1;stroke-width:1.13168561"
       d="m 1680.1784,144.54372 -4.3305,-2.45791 -6.3683,11.21993 -2.0471,-1.16193 c -4.3305,-2.45791 -7.8194,-1.26307 -10.322,3.14617 l -1.5418,2.71641 c -2.5026,4.40923 -1.7397,8.01731 2.5908,10.47522 l 6.3776,3.61984 z m -12.9332,12.69884 -4.8041,8.46416 -2.0472,-1.16193 c -1.3779,-0.78206 -1.7683,-1.8365 -0.6511,-3.80491 l 1.8546,-3.26756 c 1.1172,-1.96841 2.2227,-2.17375 3.6006,-1.39169 z" /><path
       inkscape:connector-curvature="0"
       id="path904"
       style="font-style:normal;font-variant:normal;font-weight:normal;font-stretch:normal;font-family:'Bebas Neue';-inkscape-font-specification:'Bebas Neue';letter-spacing:11.25px;writing-mode:lr-tb;direction:ltr;fill:#0a67b2;fill-opacity:1;stroke-width:1.13168561"
       d="m 1638.0608,123.17791 -4.5872,-1.93698 -12.3262,29.19149 4.5872,1.93698 z" /><path
       inkscape:connector-curvature="0"
       id="path906"
       style="font-style:normal;font-variant:normal;font-weight:normal;font-stretch:normal;font-family:'Bebas Neue';-inkscape-font-specification:'Bebas Neue';letter-spacing:11.25px;writing-mode:lr-tb;direction:ltr;fill:#0a67b2;fill-opacity:1;stroke-width:1.13168561"
       d="m 1619.5874,115.73658 -4.1958,-1.44056 -7.5115,21.87808 -0.086,-0.0294 1.86,-23.81843 -4.838,-1.66106 -10.2898,29.96998 4.1958,1.44056 6.1592,-17.93917 0.086,0.0294 -1.578,19.51203 5.9084,2.02855 z" /><path
       inkscape:connector-curvature="0"
       id="path908"
       style="font-style:normal;font-variant:normal;font-weight:normal;font-stretch:normal;font-family:'Bebas Neue';-inkscape-font-specification:'Bebas Neue';letter-spacing:11.25px;writing-mode:lr-tb;direction:ltr;fill:#0a67b2;fill-opacity:1;stroke-width:1.13168561"
       d="m 1590.4367,106.39834 -7.371,-1.87148 c -4.8263,-1.22538 -7.8751,0.84946 -9.1228,5.7635 l -3.9435,15.53187 c -1.2476,4.91403 0.4421,8.19198 5.2684,9.41736 l 7.3711,1.87148 z m -5.9403,3.16216 -5.5699,21.93766 -2.457,-0.62383 c -1.5356,-0.38989 -2.2565,-1.41358 -1.6995,-3.60735 l 4.0549,-15.97062 c 0.557,-2.19376 1.6789,-2.74959 3.2145,-2.35969 z" /><path
       inkscape:connector-curvature="0"
       id="path910"
       style="font-style:normal;font-variant:normal;font-weight:normal;font-stretch:normal;font-family:'Bebas Neue';-inkscape-font-specification:'Bebas Neue';letter-spacing:11.25px;writing-mode:lr-tb;direction:ltr;fill:#0a67b2;fill-opacity:1;stroke-width:1.13168561"
       d="m 1554.5471,98.043335 c -4.8199,-0.818505 -7.938,1.590572 -8.7869,6.588965 l -2.7889,16.42328 c -0.8489,4.99839 1.2992,8.30176 6.1191,9.12027 4.8198,0.8185 7.938,-1.59057 8.7868,-6.58897 l 2.789,-16.42328 c 0.8488,-4.99839 -1.2993,-8.301759 -6.1191,-9.120265 z m -0.7579,4.462845 c 1.562,0.26526 2.3998,1.27993 2.0209,3.51136 l -2.8951,17.04808 c -0.3789,2.23143 -1.5048,2.91263 -3.0668,2.64738 -1.562,-0.26526 -2.3998,-1.27993 -2.0209,-3.51136 l 2.8951,-17.04808 c 0.379,-2.23142 1.5048,-2.91263 3.0668,-2.64738 z" /><path
       inkscape:connector-curvature="0"
       id="path912"
       style="font-style:normal;font-variant:normal;font-weight:normal;font-stretch:normal;font-family:'Bebas Neue';-inkscape-font-specification:'Bebas Neue';letter-spacing:11.25px;writing-mode:lr-tb;direction:ltr;fill:#0a67b2;fill-opacity:1;stroke-width:1.13168561"
       d="m 1532.5162,95.356078 -4.4196,-0.383014 -1.9972,23.045276 -0.09,-0.008 -3.9558,-23.56117 -5.0961,-0.44164 -2.7359,31.56887 4.4197,0.38302 1.6376,-18.89623 0.09,0.008 3.1879,19.31441 6.2236,0.53935 z" /><path
       inkscape:connector-curvature="0"
       id="path914"
       style="font-style:normal;font-variant:normal;font-weight:normal;font-stretch:normal;font-family:'Bebas Neue';-inkscape-font-specification:'Bebas Neue';letter-spacing:11.25px;writing-mode:lr-tb;direction:ltr;fill:#0a67b2;fill-opacity:1;stroke-width:1.13168561"
       d="m 1501.9723,93.363086 -13.5799,-0.09371 -0.031,4.526634 8.6006,0.05935 -0.067,9.73226 -6.8352,-0.0472 -0.031,4.52663 6.8352,0.0472 -0.058,8.37427 -8.6006,-0.0593 -0.031,4.52664 13.5799,0.0937 z" /><path
       inkscape:connector-curvature="0"
       id="path916"
       style="font-style:normal;font-variant:normal;font-weight:normal;font-stretch:normal;font-family:'Bebas Neue';-inkscape-font-specification:'Bebas Neue';letter-spacing:11.25px;writing-mode:lr-tb;direction:ltr;fill:#0a67b2;fill-opacity:1;stroke-width:1.13168561"
       d="m 1467.7045,93.7302 c -4.8772,0.33762 -7.2964,3.409132 -6.94,8.5573 0.2719,3.92886 1.7566,6.36713 6.1645,9.73743 3.4484,2.61996 4.6027,4.21896 4.7622,6.52209 0.15,2.16764 -0.6938,3.08819 -2.2743,3.19761 -1.5806,0.10941 -2.5432,-0.68609 -2.6995,-2.94406 l -0.1126,-1.62574 -4.6965,0.32512 0.091,1.30962 c 0.3502,5.05785 2.9437,7.78236 7.7757,7.44787 4.8321,-0.3345 7.2061,-3.40288 6.8622,-8.37041 -0.2501,-3.61275 -1.783,-6.09305 -6.1909,-9.46335 -3.4484,-2.61996 -4.5576,-4.22209 -4.7389,-6.84133 -0.1626,-2.348284 0.7747,-3.229927 2.3552,-3.339341 1.5806,-0.109413 2.6304,0.634681 2.7867,2.892651 l 0.15,2.16765 4.6966,-0.32512 -0.125,-1.80637 c -0.3502,-5.05785 -2.9888,-7.779239 -7.866,-7.44162 z" /><path
       inkscape:connector-curvature="0"
       id="path918"
       style="font-style:normal;font-variant:normal;font-weight:normal;font-stretch:normal;font-family:'Bebas Neue';-inkscape-font-specification:'Bebas Neue';letter-spacing:11.25px;writing-mode:lr-tb;direction:ltr;fill:#0a67b2;fill-opacity:1;stroke-width:1.13168561"
       d="m 1446.2666,96.291127 -4.9344,0.667611 4.2484,31.401102 4.9345,-0.66761 z" /><path
       inkscape:connector-curvature="0"
       id="path920"
       style="font-style:normal;font-variant:normal;font-weight:normal;font-stretch:normal;font-family:'Bebas Neue';-inkscape-font-specification:'Bebas Neue';letter-spacing:11.25px;writing-mode:lr-tb;direction:ltr;fill:#0a67b2;fill-opacity:1;stroke-width:1.13168561"
       d="m 1427.8665,99.038577 -4.5237,0.924851 0.3552,6.257302 -5.5438,1.13339 0.018,0.0887 -2.1474,-5.98331 -4.8785,0.99739 11.4029,30.01137 6.6082,-1.35101 z m -3.8837,11.513273 1.0084,15.78034 -0.089,0.0181 -5.3103,-14.90083 z" /><path
       inkscape:connector-curvature="0"
       id="path922"
       style="font-style:normal;font-variant:normal;font-weight:normal;font-stretch:normal;font-family:'Bebas Neue';-inkscape-font-specification:'Bebas Neue';letter-spacing:11.25px;writing-mode:lr-tb;direction:ltr;fill:#0a67b2;fill-opacity:1;stroke-width:1.13168561"
       d="m 1380.1933,111.03487 -4.7129,1.60713 4.4561,13.06767 -6.0839,2.07466 1.461,4.28448 6.084,-2.07466 2.849,8.35474 -7.7549,2.64447 1.461,4.28448 12.4678,-4.2516 z" /><path
       inkscape:connector-curvature="0"
       id="path924"
       style="font-style:normal;font-variant:normal;font-weight:normal;font-stretch:normal;font-family:'Bebas Neue';-inkscape-font-specification:'Bebas Neue';letter-spacing:11.25px;writing-mode:lr-tb;direction:ltr;fill:#0a67b2;fill-opacity:1;stroke-width:1.13168561"
       d="m 1354.9986,120.19586 -12.493,5.32436 1.7748,4.16432 7.9122,-3.3721 3.8158,8.95328 -6.2881,2.67993 1.7748,4.16432 6.2881,-2.67993 3.2833,7.70399 -7.9122,3.37209 1.7748,4.16431 12.493,-5.32435 z" /><path
       inkscape:connector-curvature="0"
       id="path926"
       style="font-style:normal;font-variant:normal;font-weight:normal;font-stretch:normal;font-family:'Bebas Neue';-inkscape-font-specification:'Bebas Neue';letter-spacing:11.25px;writing-mode:lr-tb;direction:ltr;fill:#0a67b2;fill-opacity:1;stroke-width:1.13168561"
       d="m 1329.7422,131.55548 -4.415,2.30261 6.2798,12.04102 -1.5252,0.79544 c -2.0068,1.04665 -3.209,0.6015 -4.5696,-2.00739 l -2.6794,-5.1375 c -1.1932,-2.28779 -1.584,-2.64557 -2.2016,-3.24243 l -4.4953,2.34448 c 0.9857,0.81329 1.5492,1.79578 2.2609,3.16042 l 2.5747,4.93682 c 1.6537,3.1708 3.4647,4.88112 6.0281,4.41214 l 0.042,0.0803 c -1.548,1.82845 -1.5082,4.15619 0,7.04603 l 0.9001,1.72588 c 2.2608,4.33477 5.3369,5.43631 9.9125,3.04997 l 6.5423,-3.41205 z m 3.9581,18.3573 4.1866,8.02734 -2.0069,1.04665 c -1.5653,0.81638 -2.7082,0.28923 -3.7548,-1.71761 l -1.1304,-2.16738 c -1.1722,-2.24766 -0.5456,-3.49344 1.1,-4.35169 z" /><path
       inkscape:connector-curvature="0"
       id="path928"
       style="font-style:normal;font-variant:normal;font-weight:normal;font-stretch:normal;font-family:'Bebas Neue';-inkscape-font-specification:'Bebas Neue';letter-spacing:11.25px;writing-mode:lr-tb;direction:ltr;fill:#0a67b2;fill-opacity:1;stroke-width:1.13168561"
       d="m 1303.9072,145.71437 -4.2187,2.6452 7.2142,11.50556 -1.4574,0.9138 c -1.9176,1.20237 -3.1513,0.85388 -4.7143,-1.63899 l -3.0781,-4.90904 c -1.3707,-2.18606 -1.7886,-2.51174 -2.4516,-3.05779 l -4.2954,2.69331 c 1.0471,0.73263 1.6866,1.66737 2.5043,2.97134 l 2.9578,4.71727 c 1.8997,3.0298 3.8405,4.59124 6.3587,3.92062 l 0.048,0.0767 c -1.3983,1.94535 -1.1742,4.26263 0.5572,7.02396 l 1.034,1.64913 c 2.5971,4.142 5.7509,4.99633 10.123,2.25493 l 6.2513,-3.91972 z m 5.4002,17.98594 4.8095,7.67037 -1.9176,1.20237 c -1.4957,0.93785 -2.6767,0.50291 -3.8791,-1.41468 l -1.2986,-2.071 c -1.3466,-2.1477 -0.8207,-3.43922 0.7518,-4.42516 z" /><path
       inkscape:connector-curvature="0"
       id="path930"
       style="font-style:normal;font-variant:normal;font-weight:normal;font-stretch:normal;font-family:'Bebas Neue';-inkscape-font-specification:'Bebas Neue';letter-spacing:11.25px;writing-mode:lr-tb;direction:ltr;fill:#0a67b2;fill-opacity:1;stroke-width:1.13168561"
       d="m 1276.1908,164.20634 -3.9971,2.96937 8.0443,10.82872 6.0187,18.1981 3.8882,-2.88838 -4.2122,-11.36343 0.073,-0.054 9.6628,7.31429 4.2516,-3.15833 -15.6847,-11.01763 z" /></g><text
     transform="matrix(-1,0,0,1,500.28703,186.16102)"
     y="181.84958"
     x="-129.55296"
     xml:space="preserve"
     style="font-style:normal;font-variant:normal;font-weight:normal;font-stretch:normal;font-size:45.26742172px;line-height:1.25;font-family:samantha;-inkscape-font-specification:samantha;letter-spacing:0px;word-spacing:0px;fill:#0a67b2;fill-opacity:1;stroke:none;stroke-width:1.13168561"
     id="text886"><textPath
       style="font-style:normal;font-variant:normal;font-weight:normal;font-stretch:normal;line-height:0px;font-family:'Bebas Neue';-inkscape-font-specification:'Bebas Neue';letter-spacing:11.25px;writing-mode:lr-tb;direction:ltr;fill:#0a67b2;fill-opacity:1;stroke-width:1.13168561"
       id="textPath888"
       xlink:href="#path873">ASDP INDONESIA FERRY</textPath></text>
</g></g></svg>